<svg xmlns="http://www.w3.org/2000/svg" width="22" height="20" viewBox="0 0 22 20">
  <g fill="#F0583A" transform="translate(1)">
    <path d="M19.5,6.377 L0.5,6.377 C0.182436269,6.377 -0.075,6.63443627 -0.075,6.952 L-0.075,18.952 C-0.075,19.2695637 0.182436269,19.527 0.5,19.527 L19.5,19.527 C19.8175637,19.527 20.075,19.2695637 20.075,18.952 L20.075,6.952 C20.075,6.63443627 19.8175637,6.377 19.5,6.377 Z M18.925,7.527 L18.925,18.377 L1.075,18.377 L1.075,7.527 L18.925,7.527 Z"/>
    <path d="M19.5,2.377 L0.5,2.377 C0.182436269,2.377 -0.075,2.63443627 -0.075,2.952 L-0.075,6.952 C-0.075,7.26956373 0.182436269,7.527 0.5,7.527 L19.5,7.527 C19.8175637,7.527 20.075,7.26956373 20.075,6.952 L20.075,2.952 C20.075,2.63443627 19.8175637,2.377 19.5,2.377 Z M18.925,3.527 L18.925,6.377 L1.075,6.377 L1.075,3.527 L18.925,3.527 Z"/>
    <path d="M13.1665,6.3769 C13.4523074,6.3769 13.6894115,6.58542338 13.7339742,6.85863201 L13.7415,6.9519 L13.741,10.376 L19.5005,10.3769 C19.8180637,10.3769 20.0755,10.6343363 20.0755,10.9519 C20.0755,11.2377074 19.8669766,11.4748115 19.593768,11.5193742 L19.5005,11.5269 L13.741,11.526 L13.741,14.376 L19.5005,14.3769 C19.8180637,14.3769 20.0755,14.6343363 20.0755,14.9519 C20.0755,15.2377074 19.8669766,15.4748115 19.593768,15.5193742 L19.5005,15.5269 L13.741,15.526 L13.7415,18.9519 C13.7415,19.2694637 13.4840637,19.5269 13.1665,19.5269 C12.8806926,19.5269 12.6435885,19.3183766 12.5990258,19.045168 L12.5915,18.9519 L12.591,15.526 L7.408,15.526 L7.4085,18.9519 C7.4085,19.2694637 7.15106373,19.5269 6.8335,19.5269 C6.54769264,19.5269 6.31058853,19.3183766 6.26602578,19.045168 L6.2585,18.9519 L6.258,15.526 L0.5005,15.5269 C0.182936269,15.5269 -0.0745,15.2694637 -0.0745,14.9519 C-0.0745,14.6660926 0.134023378,14.4289885 0.407232013,14.3844258 L0.5005,14.3769 L6.258,14.376 L6.258,11.526 L0.5005,11.5269 C0.182936269,11.5269 -0.0745,11.2694637 -0.0745,10.9519 C-0.0745,10.6660926 0.134023378,10.4289885 0.407232013,10.3844258 L0.5005,10.3769 L6.258,10.376 L6.2585,6.9519 C6.2585,6.63433627 6.51593627,6.3769 6.8335,6.3769 C7.11930736,6.3769 7.35641147,6.58542338 7.40097422,6.85863201 L7.4085,6.9519 L7.408,10.376 L12.591,10.376 L12.5915,6.9519 C12.5915,6.63433627 12.8489363,6.3769 13.1665,6.3769 Z M12.591,11.526 L7.408,11.526 L7.408,14.376 L12.591,14.376 L12.591,11.526 Z M5.2505,0.228 C5.53630736,0.228 5.77341147,0.436523378 5.81797422,0.709732013 L5.8255,0.803 L5.8255,4.803 C5.8255,5.12056373 5.56806373,5.378 5.2505,5.378 C4.96469264,5.378 4.72758853,5.16947662 4.68302578,4.89626799 L4.6755,4.803 L4.6755,0.803 C4.6755,0.485436269 4.93293627,0.228 5.2505,0.228 Z M14.7505,0.228 C15.0363074,0.228 15.2734115,0.436523378 15.3179742,0.709732013 L15.3255,0.803 L15.3255,4.803 C15.3255,5.12056373 15.0680637,5.378 14.7505,5.378 C14.4646926,5.378 14.2275885,5.16947662 14.1830258,4.89626799 L14.1755,4.803 L14.1755,0.803 C14.1755,0.485436269 14.4329363,0.228 14.7505,0.228 Z"/>
  </g>
</svg>
