<svg xmlns="http://www.w3.org/2000/svg" width="16" height="22" viewBox="0 0 16 22">
  <path fill="#F0583A" d="M7.89,21.59 L7.3,21.07 C2.46,16.83 0,12.39 0,7.89 C0,3.53247332 3.53247332,0 7.89,0 C12.2475267,0 15.78,3.53247332 15.78,7.89 C15.78,12.39 13.33,16.83 8.48,21.07 L7.89,21.59 Z M7.89,1 C4.08704171,1.00550755 1.00550755,4.08704171 1,7.89 C1,12.07 3.32,16.23 7.89,20.26 C12.46,16.26 14.78,12.07 14.78,7.89 C14.7744924,4.08704171 11.6929583,1.00550755 7.89,1 Z M7.89,11.07 C6.1337345,11.07 4.71,9.6462655 4.71,7.89 C4.71,6.1337345 6.1337345,4.71 7.89,4.71 C9.6462655,4.71 11.07,6.1337345 11.07,7.89 C11.0645102,9.64398651 9.64398651,11.0645102 7.89,11.07 L7.89,11.07 Z M7.89,5.71 C6.68601925,5.71 5.71,6.68601925 5.71,7.89 C5.71,9.09398075 6.68601925,10.07 7.89,10.07 C9.09398075,10.07 10.07,9.09398075 10.07,7.89 C10.0645252,6.6882943 9.0917057,5.71547483 7.89,5.71 L7.89,5.71 Z"/>
</svg>
