<svg xmlns="http://www.w3.org/2000/svg" width="18" height="29" viewBox="0 0 18 29">
  <g fill="none" fill-rule="evenodd" stroke="#F0583A" stroke-linecap="round" stroke-linejoin="round" stroke-width="1.15" transform="translate(.84 .098)">
    <path d="M8.4975 2.8325C8.4975 4.00657125 7.54578 4.956875 6.373125 4.956875 5.20047 4.956875 4.24875 4.00657125 4.24875 2.8325 4.24875 1.65842875 5.20047.708125 6.373125.708125 7.54578.708125 8.4975 1.65842875 8.4975 2.8325zM6.373125 26.200625C6.373125 26.9838112 5.74006125 27.616875 4.956875 27.616875 4.17368875 27.616875 3.540625 26.9838112 3.540625 26.200625L3.540625 10.0907812"/>
    <path d="M9.91375 7.25828125L2.124375 7.25828125C1.34118875 7.25828125.708125 7.89276125.708125 8.67453125L.708125 16.1126762C.708125 16.8944463 1.34118875 17.5289262 2.124375 17.5289262M6.373125 17.1444144L6.373125 26.2013331C6.373125 26.9831031 7.00618875 27.6175831 7.789375 27.6175831 8.57256125 27.6175831 9.205625 26.9831031 9.205625 26.2013331L9.205625 10.0914894M12.038125 27.616875L16.286875 27.616875 16.286875 20.535625 12.038125 20.535625 12.038125 27.616875zM14.1625 20.535625L14.1625 18.41125M9.91375 7.25757313C10.5383163 7.25757313 11.1118975 7.67536687 11.2818475 8.30843062"/>
    <path d="M11.2815642,8.30800575 L13.2076642,15.4968908 C13.410188,16.251752 12.962653,17.0292733 12.2063755,17.231797"/>
  </g>
</svg>
