<svg xmlns="http://www.w3.org/2000/svg" width="22" height="22" viewBox="0 0 22 22">
  <path fill="#FFF" d="M20.67,21.35 C20.4930704,21.34801 20.3241114,21.2761126 20.2,21.15 L14,15 C10.7410105,17.7240378 5.91537552,17.4008134 3.04878386,14.2664798 C0.182192212,11.1321462 0.290005124,6.29690028 3.2934527,3.2934527 C6.29690028,0.290005124 11.1321462,0.182192212 14.2664798,3.04878386 C17.4008134,5.91537552 17.7240378,10.7410105 15,14 L21.17,20.17 C21.2989379,20.2943858 21.3717697,20.4658441 21.3717697,20.645 C21.3717697,20.8241559 21.2989379,20.9956142 21.17,21.12 C21.0439677,21.2647407 20.8619159,21.3484846 20.67,21.35 Z M8.92,2.35 C6.25772908,2.35 3.85779209,3.95425276 2.83992183,6.41425816 C1.82205156,8.87426357 2.3868437,11.7052218 4.27078455,13.5862995 C6.15472539,15.4673772 8.98653933,16.0278631 11.4449938,15.0062525 C13.9034483,13.984642 15.504046,11.5822678 15.5000077,8.92 C15.4944831,5.2898722 12.550132,2.35 8.92,2.35 Z"/>
</svg>
